<?xml version="1.0" encoding="UTF-8"?>
<svg
  xmlns="http://www.w3.org/2000/svg"
  xmlns:xlink="http://www.w3.org/1999/xlink"
  width="40px"
  height="40px"
  viewBox="0 0 40 40"
  version="1.1"
>
  <g id="surface1">
    <path
      style="stroke: none; fill-rule: nonzero; fill: rgb(0%, 0%, 0%); fill-opacity: 1"
      d="M 27.507812 15.0625 C 27.570312 15.0625 27.570312 15.0625 27.632812 15.0625 C 27.695312 15.0625 27.695312 15.0625 27.765625 15.0625 C 27.8125 15.0625 27.855469 15.0625 27.90625 15.0625 C 28.03125 15.0625 28.160156 15.0625 28.285156 15.0625 C 28.421875 15.0625 28.554688 15.0625 28.6875 15.0625 C 28.910156 15.0625 29.136719 15.0625 29.359375 15.0625 C 29.617188 15.0625 29.875 15.0625 30.136719 15.0625 C 30.359375 15.0625 30.582031 15.0625 30.800781 15.0625 C 30.933594 15.0625 31.066406 15.0625 31.199219 15.0625 C 31.347656 15.0625 31.496094 15.0625 31.644531 15.0625 C 31.6875 15.0625 31.730469 15.0625 31.777344 15.0625 C 32.167969 15.066406 32.167969 15.066406 32.34375 15.195312 C 32.488281 15.375 32.519531 15.492188 32.519531 15.722656 C 32.519531 15.75 32.519531 15.777344 32.519531 15.808594 C 32.519531 15.902344 32.519531 16 32.519531 16.09375 C 32.519531 16.164062 32.519531 16.234375 32.519531 16.304688 C 32.523438 16.496094 32.519531 16.6875 32.519531 16.875 C 32.519531 17.082031 32.519531 17.289062 32.523438 17.496094 C 32.523438 17.898438 32.523438 18.300781 32.523438 18.703125 C 32.523438 19.03125 32.523438 19.359375 32.523438 19.6875 C 32.523438 19.734375 32.523438 19.78125 32.523438 19.828125 C 32.523438 19.925781 32.523438 20.019531 32.523438 20.113281 C 32.523438 21.003906 32.523438 21.890625 32.523438 22.78125 C 32.523438 23.59375 32.523438 24.40625 32.523438 25.21875 C 32.523438 26.054688 32.523438 26.890625 32.523438 27.722656 C 32.523438 27.816406 32.523438 27.914062 32.523438 28.007812 C 32.523438 28.054688 32.523438 28.101562 32.523438 28.148438 C 32.523438 28.476562 32.523438 28.800781 32.527344 29.128906 C 32.527344 29.527344 32.527344 29.929688 32.523438 30.328125 C 32.523438 30.53125 32.523438 30.734375 32.523438 30.9375 C 32.527344 31.125 32.527344 31.3125 32.523438 31.496094 C 32.523438 31.566406 32.523438 31.632812 32.523438 31.699219 C 32.527344 31.792969 32.523438 31.882812 32.523438 31.972656 C 32.523438 32.027344 32.523438 32.078125 32.523438 32.128906 C 32.492188 32.3125 32.4375 32.371094 32.304688 32.5 C 32.1875 32.570312 32.105469 32.589844 31.96875 32.589844 C 31.933594 32.589844 31.898438 32.589844 31.859375 32.589844 C 31.820312 32.589844 31.78125 32.589844 31.738281 32.589844 C 31.675781 32.589844 31.675781 32.589844 31.613281 32.589844 C 31.46875 32.589844 31.328125 32.589844 31.183594 32.589844 C 31.082031 32.589844 30.976562 32.589844 30.875 32.589844 C 30.652344 32.589844 30.425781 32.589844 30.203125 32.589844 C 29.867188 32.589844 29.535156 32.589844 29.199219 32.589844 C 28.570312 32.589844 27.9375 32.589844 27.308594 32.589844 C 26.820312 32.589844 26.335938 32.589844 25.847656 32.589844 C 25.707031 32.589844 25.566406 32.589844 25.429688 32.59375 C 25.394531 32.59375 25.359375 32.59375 25.324219 32.59375 C 24.34375 32.59375 23.363281 32.59375 22.382812 32.59375 C 22.328125 32.59375 22.328125 32.59375 22.273438 32.59375 C 22.085938 32.59375 21.898438 32.59375 21.710938 32.59375 C 21.671875 32.59375 21.636719 32.59375 21.597656 32.59375 C 21.523438 32.59375 21.449219 32.59375 21.371094 32.59375 C 20.203125 32.59375 19.03125 32.59375 17.859375 32.59375 C 16.546875 32.59375 15.234375 32.597656 13.917969 32.597656 C 13.777344 32.597656 13.636719 32.597656 13.5 32.597656 C 13.464844 32.597656 13.429688 32.597656 13.394531 32.597656 C 12.839844 32.597656 12.28125 32.597656 11.726562 32.597656 C 11.167969 32.597656 10.609375 32.597656 10.050781 32.597656 C 9.71875 32.597656 9.390625 32.597656 9.058594 32.597656 C 8.835938 32.597656 8.613281 32.597656 8.390625 32.597656 C 8.265625 32.597656 8.140625 32.597656 8.011719 32.597656 C 7.878906 32.597656 7.742188 32.597656 7.605469 32.597656 C 7.566406 32.597656 7.527344 32.597656 7.488281 32.597656 C 7.210938 32.597656 7.089844 32.539062 6.882812 32.359375 C 6.777344 32.234375 6.785156 32.082031 6.785156 31.925781 C 6.804688 31.785156 6.859375 31.707031 6.953125 31.601562 C 7.117188 31.476562 7.265625 31.46875 7.464844 31.472656 C 7.496094 31.472656 7.527344 31.472656 7.558594 31.472656 C 7.664062 31.472656 7.765625 31.472656 7.867188 31.472656 C 7.941406 31.472656 8.011719 31.472656 8.082031 31.472656 C 8.269531 31.472656 8.457031 31.476562 8.648438 31.476562 C 8.839844 31.476562 9.03125 31.476562 9.222656 31.480469 C 9.597656 31.480469 9.976562 31.480469 10.351562 31.484375 C 10.351562 31.445312 10.351562 31.40625 10.351562 31.367188 C 10.347656 30.433594 10.347656 29.496094 10.34375 28.5625 C 10.34375 28.109375 10.34375 27.660156 10.34375 27.207031 C 10.339844 26.8125 10.339844 26.417969 10.339844 26.023438 C 10.339844 25.816406 10.339844 25.605469 10.339844 25.398438 C 10.339844 25.203125 10.339844 25.003906 10.339844 24.808594 C 10.339844 24.738281 10.339844 24.664062 10.335938 24.59375 C 10.335938 24.496094 10.335938 24.394531 10.335938 24.296875 C 10.335938 24.269531 10.335938 24.242188 10.335938 24.210938 C 10.339844 24.027344 10.375 23.90625 10.46875 23.75 C 10.671875 23.554688 10.882812 23.570312 11.148438 23.574219 C 11.214844 23.574219 11.214844 23.574219 11.285156 23.574219 C 11.429688 23.570312 11.578125 23.574219 11.726562 23.574219 C 11.828125 23.574219 11.929688 23.574219 12.035156 23.574219 C 12.246094 23.570312 12.460938 23.574219 12.675781 23.574219 C 12.925781 23.574219 13.171875 23.574219 13.421875 23.574219 C 13.660156 23.574219 13.898438 23.574219 14.136719 23.574219 C 14.238281 23.574219 14.339844 23.574219 14.441406 23.574219 C 14.582031 23.570312 14.726562 23.574219 14.867188 23.574219 C 14.910156 23.574219 14.949219 23.574219 14.992188 23.574219 C 15.222656 23.574219 15.371094 23.585938 15.546875 23.75 C 15.671875 23.914062 15.679688 24.054688 15.679688 24.253906 C 15.679688 24.285156 15.679688 24.316406 15.679688 24.347656 C 15.679688 24.453125 15.679688 24.554688 15.675781 24.660156 C 15.675781 24.734375 15.675781 24.808594 15.675781 24.882812 C 15.675781 25.085938 15.675781 25.285156 15.675781 25.488281 C 15.675781 25.699219 15.675781 25.910156 15.675781 26.121094 C 15.675781 26.519531 15.671875 26.917969 15.671875 27.316406 C 15.671875 27.773438 15.671875 28.226562 15.671875 28.679688 C 15.667969 29.613281 15.667969 30.550781 15.664062 31.484375 C 15.832031 31.484375 16 31.484375 16.171875 31.484375 C 16.171875 31.421875 16.171875 31.363281 16.171875 31.300781 C 16.167969 29.855469 16.167969 28.414062 16.164062 26.972656 C 16.164062 26.792969 16.164062 26.617188 16.164062 26.4375 C 16.164062 26.402344 16.164062 26.367188 16.164062 26.332031 C 16.164062 25.757812 16.164062 25.1875 16.164062 24.613281 C 16.160156 24.027344 16.160156 23.4375 16.160156 22.851562 C 16.160156 22.488281 16.160156 22.125 16.160156 21.761719 C 16.160156 21.515625 16.160156 21.265625 16.160156 21.019531 C 16.160156 20.875 16.160156 20.730469 16.15625 20.585938 C 16.15625 20.433594 16.15625 20.277344 16.15625 20.121094 C 16.15625 20.074219 16.15625 20.03125 16.15625 19.984375 C 16.15625 19.941406 16.15625 19.898438 16.15625 19.855469 C 16.15625 19.820312 16.15625 19.785156 16.15625 19.75 C 16.183594 19.578125 16.277344 19.445312 16.40625 19.335938 C 16.523438 19.296875 16.601562 19.292969 16.722656 19.292969 C 16.78125 19.289062 16.78125 19.289062 16.84375 19.289062 C 16.914062 19.289062 16.914062 19.289062 16.980469 19.289062 C 17.050781 19.289062 17.050781 19.289062 17.125 19.289062 C 17.28125 19.289062 17.4375 19.289062 17.59375 19.289062 C 17.648438 19.289062 17.703125 19.289062 17.757812 19.285156 C 18.011719 19.285156 18.265625 19.285156 18.519531 19.285156 C 18.8125 19.285156 19.101562 19.285156 19.394531 19.28125 C 19.621094 19.28125 19.847656 19.28125 20.074219 19.28125 C 20.210938 19.28125 20.34375 19.28125 20.480469 19.277344 C 20.632812 19.277344 20.78125 19.277344 20.933594 19.277344 C 20.976562 19.277344 21.023438 19.277344 21.070312 19.277344 C 21.304688 19.277344 21.460938 19.285156 21.640625 19.453125 C 21.769531 19.609375 21.773438 19.753906 21.769531 19.945312 C 21.769531 19.976562 21.769531 20.007812 21.769531 20.039062 C 21.769531 20.132812 21.769531 20.230469 21.769531 20.324219 C 21.769531 20.386719 21.769531 20.445312 21.769531 20.503906 C 21.769531 20.722656 21.765625 20.945312 21.765625 21.164062 C 21.761719 21.65625 21.761719 22.148438 21.757812 22.65625 C 23.472656 22.65625 25.1875 22.65625 26.953125 22.65625 C 26.953125 22.136719 26.949219 21.617188 26.949219 21.082031 C 26.945312 20.753906 26.945312 20.425781 26.945312 20.097656 C 26.945312 19.578125 26.945312 19.054688 26.941406 18.535156 C 26.941406 18.15625 26.9375 17.777344 26.9375 17.394531 C 26.9375 17.195312 26.9375 16.992188 26.9375 16.792969 C 26.933594 16.605469 26.933594 16.414062 26.933594 16.226562 C 26.933594 16.15625 26.933594 16.085938 26.933594 16.015625 C 26.933594 15.921875 26.933594 15.828125 26.933594 15.730469 C 26.933594 15.691406 26.933594 15.691406 26.933594 15.648438 C 26.933594 15.453125 26.984375 15.34375 27.109375 15.195312 C 27.246094 15.09375 27.339844 15.0625 27.507812 15.0625 Z M 27.507812 15.0625 "
    />
    <path
      style="stroke: none; fill-rule: nonzero; fill: rgb(0%, 0%, 0%); fill-opacity: 1"
      d="M 27.984375 7.027344 C 28.03125 7.023438 28.074219 7.023438 28.121094 7.023438 C 28.167969 7.023438 28.21875 7.023438 28.265625 7.023438 C 28.316406 7.023438 28.371094 7.023438 28.421875 7.023438 C 28.589844 7.023438 28.761719 7.023438 28.929688 7.023438 C 28.988281 7.023438 29.046875 7.023438 29.105469 7.019531 C 29.378906 7.019531 29.652344 7.019531 29.929688 7.019531 C 30.246094 7.019531 30.5625 7.019531 30.878906 7.015625 C 31.121094 7.015625 31.367188 7.015625 31.609375 7.015625 C 31.757812 7.015625 31.902344 7.015625 32.050781 7.011719 C 32.210938 7.011719 32.375 7.011719 32.539062 7.011719 C 32.585938 7.011719 32.632812 7.011719 32.683594 7.011719 C 33.101562 7.015625 33.101562 7.015625 33.28125 7.1875 C 33.359375 7.308594 33.371094 7.40625 33.371094 7.550781 C 33.371094 7.589844 33.371094 7.632812 33.371094 7.675781 C 33.371094 7.71875 33.371094 7.765625 33.371094 7.8125 C 33.371094 7.882812 33.371094 7.882812 33.371094 7.957031 C 33.371094 8.089844 33.371094 8.222656 33.371094 8.351562 C 33.371094 8.433594 33.371094 8.515625 33.371094 8.597656 C 33.375 8.886719 33.375 9.171875 33.375 9.460938 C 33.375 9.726562 33.375 9.996094 33.375 10.261719 C 33.375 10.492188 33.378906 10.722656 33.378906 10.949219 C 33.378906 11.085938 33.378906 11.226562 33.378906 11.363281 C 33.378906 11.515625 33.378906 11.667969 33.378906 11.820312 C 33.378906 11.867188 33.378906 11.910156 33.378906 11.957031 C 33.378906 12.210938 33.359375 12.371094 33.203125 12.578125 C 33.035156 12.695312 32.898438 12.71875 32.695312 12.695312 C 32.492188 12.625 32.40625 12.53125 32.304688 12.34375 C 32.28125 12.226562 32.28125 12.109375 32.285156 11.992188 C 32.28125 11.957031 32.28125 11.921875 32.28125 11.886719 C 32.28125 11.773438 32.28125 11.65625 32.28125 11.542969 C 32.28125 11.464844 32.28125 11.382812 32.277344 11.304688 C 32.277344 11.097656 32.277344 10.886719 32.277344 10.679688 C 32.273438 10.46875 32.273438 10.253906 32.273438 10.042969 C 32.269531 9.625 32.265625 9.207031 32.265625 8.789062 C 32.1875 8.867188 32.109375 8.945312 32.027344 9.023438 C 32.007812 9.046875 31.984375 9.066406 31.960938 9.089844 C 31.84375 9.207031 31.730469 9.328125 31.621094 9.453125 C 31.488281 9.609375 31.34375 9.746094 31.191406 9.886719 C 30.921875 10.136719 30.65625 10.394531 30.394531 10.65625 C 30.375 10.675781 30.355469 10.695312 30.335938 10.714844 C 30.214844 10.832031 30.097656 10.953125 29.976562 11.070312 C 29.871094 11.179688 29.765625 11.285156 29.660156 11.390625 C 29.460938 11.589844 29.261719 11.789062 29.0625 11.992188 C 28.835938 12.21875 28.605469 12.445312 28.378906 12.671875 C 27.992188 13.0625 27.601562 13.449219 27.214844 13.839844 C 27.183594 13.871094 27.152344 13.902344 27.117188 13.933594 C 27.089844 13.964844 27.0625 13.992188 27.03125 14.023438 C 26.964844 14.089844 26.902344 14.152344 26.835938 14.214844 C 26.722656 14.332031 26.621094 14.453125 26.515625 14.578125 C 26.492188 14.601562 26.46875 14.625 26.445312 14.648438 C 26.417969 14.648438 26.394531 14.648438 26.367188 14.648438 C 26.367188 14.675781 26.367188 14.699219 26.367188 14.726562 C 26.339844 14.726562 26.316406 14.726562 26.289062 14.726562 C 26.277344 14.75 26.269531 14.773438 26.257812 14.796875 C 26.207031 14.890625 26.148438 14.953125 26.074219 15.027344 C 26.050781 15.054688 26.027344 15.078125 26.003906 15.101562 C 25.9375 15.15625 25.9375 15.15625 25.859375 15.15625 C 25.847656 15.1875 25.847656 15.1875 25.835938 15.21875 C 25.757812 15.351562 25.65625 15.449219 25.546875 15.554688 C 25.527344 15.578125 25.503906 15.601562 25.480469 15.621094 C 25.324219 15.78125 25.324219 15.78125 25.234375 15.78125 C 25.21875 15.8125 25.21875 15.8125 25.207031 15.847656 C 25.144531 15.957031 25.070312 16.035156 24.976562 16.125 C 24.960938 16.144531 24.941406 16.160156 24.925781 16.179688 C 24.863281 16.238281 24.804688 16.300781 24.746094 16.359375 C 24.703125 16.398438 24.664062 16.441406 24.621094 16.484375 C 24.535156 16.570312 24.445312 16.65625 24.359375 16.742188 C 24.25 16.855469 24.136719 16.964844 24.027344 17.078125 C 23.941406 17.164062 23.855469 17.25 23.769531 17.335938 C 23.730469 17.375 23.6875 17.417969 23.648438 17.457031 C 23.589844 17.515625 23.53125 17.574219 23.472656 17.628906 C 23.441406 17.664062 23.410156 17.695312 23.375 17.726562 C 23.222656 17.863281 23.101562 17.945312 22.894531 17.945312 C 22.84375 17.949219 22.84375 17.949219 22.796875 17.949219 C 22.515625 17.894531 22.316406 17.636719 22.125 17.441406 C 22.078125 17.394531 22.078125 17.394531 22.027344 17.347656 C 21.925781 17.242188 21.824219 17.140625 21.722656 17.039062 C 21.621094 16.9375 21.523438 16.835938 21.421875 16.734375 C 21.359375 16.667969 21.292969 16.605469 21.230469 16.542969 C 21.074219 16.382812 20.910156 16.230469 20.742188 16.082031 C 20.609375 15.964844 20.484375 15.839844 20.359375 15.714844 C 20.332031 15.6875 20.304688 15.660156 20.277344 15.632812 C 20.191406 15.546875 20.105469 15.460938 20.019531 15.375 C 19.960938 15.316406 19.902344 15.253906 19.84375 15.195312 C 19.699219 15.054688 19.558594 14.910156 19.414062 14.765625 C 19.296875 14.824219 19.1875 14.886719 19.078125 14.957031 C 18.601562 15.246094 18.007812 15.371094 17.453125 15.253906 C 17.253906 15.199219 17.050781 15.132812 16.867188 15.03125 C 16.773438 14.992188 16.734375 15.003906 16.640625 15.039062 C 16.570312 15.089844 16.570312 15.089844 16.507812 15.160156 C 16.480469 15.183594 16.453125 15.210938 16.429688 15.238281 C 16.398438 15.265625 16.371094 15.292969 16.34375 15.324219 C 16.3125 15.355469 16.28125 15.382812 16.25 15.414062 C 16.148438 15.515625 16.046875 15.617188 15.949219 15.71875 C 15.875 15.792969 15.800781 15.863281 15.730469 15.9375 C 15.574219 16.09375 15.417969 16.25 15.261719 16.40625 C 15.035156 16.636719 14.808594 16.863281 14.582031 17.089844 C 14.214844 17.457031 13.851562 17.824219 13.484375 18.191406 C 13.449219 18.226562 13.449219 18.226562 13.417969 18.257812 C 13.328125 18.347656 13.238281 18.4375 13.148438 18.527344 C 12.90625 18.773438 12.660156 19.019531 12.414062 19.265625 C 12.394531 19.285156 12.371094 19.308594 12.347656 19.332031 C 11.984375 19.695312 11.617188 20.0625 11.253906 20.429688 C 11.027344 20.65625 10.800781 20.882812 10.574219 21.109375 C 10.402344 21.28125 10.230469 21.457031 10.058594 21.628906 C 9.988281 21.699219 9.917969 21.769531 9.84375 21.84375 C 9.75 21.9375 9.652344 22.035156 9.554688 22.132812 C 9.527344 22.160156 9.5 22.1875 9.46875 22.21875 C 9.445312 22.246094 9.417969 22.269531 9.390625 22.296875 C 9.371094 22.320312 9.347656 22.34375 9.324219 22.363281 C 9.164062 22.503906 9.015625 22.519531 8.808594 22.515625 C 8.644531 22.488281 8.585938 22.425781 8.476562 22.304688 C 8.386719 22.152344 8.378906 22.011719 8.398438 21.835938 C 8.519531 21.625 8.683594 21.464844 8.855469 21.292969 C 8.882812 21.261719 8.914062 21.230469 8.945312 21.199219 C 9.046875 21.101562 9.148438 21 9.25 20.898438 C 9.324219 20.824219 9.394531 20.75 9.46875 20.679688 C 9.625 20.523438 9.78125 20.367188 9.9375 20.210938 C 10.164062 19.984375 10.390625 19.757812 10.617188 19.53125 C 10.984375 19.164062 11.351562 18.796875 11.722656 18.429688 C 12.078125 18.074219 12.433594 17.714844 12.792969 17.359375 C 12.8125 17.339844 12.835938 17.316406 12.859375 17.292969 C 12.96875 17.183594 13.078125 17.074219 13.191406 16.960938 C 14.105469 16.046875 15.019531 15.132812 15.9375 14.21875 C 15.921875 14.171875 15.90625 14.128906 15.886719 14.082031 C 15.867188 14.019531 15.84375 13.960938 15.824219 13.898438 C 15.8125 13.867188 15.800781 13.839844 15.789062 13.808594 C 15.566406 13.183594 15.628906 12.585938 15.902344 11.992188 C 16.203125 11.390625 16.71875 11.039062 17.34375 10.820312 C 17.894531 10.671875 18.539062 10.769531 19.03125 11.042969 C 19.605469 11.417969 19.996094 11.933594 20.167969 12.597656 C 20.234375 12.957031 20.199219 13.285156 20.101562 13.636719 C 20.074219 13.765625 20.074219 13.820312 20.117188 13.945312 C 20.195312 14.03125 20.277344 14.105469 20.363281 14.183594 C 20.671875 14.460938 20.96875 14.753906 21.265625 15.050781 C 21.3125 15.097656 21.359375 15.144531 21.40625 15.191406 C 21.523438 15.308594 21.644531 15.429688 21.761719 15.550781 C 21.886719 15.671875 22.007812 15.796875 22.132812 15.917969 C 22.371094 16.160156 22.613281 16.398438 22.851562 16.640625 C 23.070312 16.457031 23.277344 16.261719 23.476562 16.058594 C 23.511719 16.023438 23.546875 15.988281 23.582031 15.953125 C 23.675781 15.863281 23.769531 15.769531 23.863281 15.675781 C 23.960938 15.578125 24.058594 15.480469 24.15625 15.382812 C 24.320312 15.214844 24.484375 15.050781 24.648438 14.886719 C 24.839844 14.695312 25.027344 14.507812 25.21875 14.316406 C 25.382812 14.15625 25.546875 13.992188 25.707031 13.828125 C 25.804688 13.730469 25.902344 13.632812 26 13.535156 C 26.109375 13.425781 26.21875 13.320312 26.328125 13.210938 C 26.359375 13.179688 26.390625 13.144531 26.421875 13.113281 C 26.589844 12.949219 26.746094 12.78125 26.894531 12.597656 C 26.953125 12.539062 26.953125 12.539062 27.070312 12.5 C 27.070312 12.472656 27.070312 12.449219 27.070312 12.421875 C 27.125 12.367188 27.125 12.367188 27.203125 12.304688 C 27.398438 12.136719 27.582031 11.957031 27.761719 11.773438 C 27.800781 11.738281 27.835938 11.699219 27.875 11.664062 C 27.972656 11.5625 28.074219 11.464844 28.171875 11.363281 C 28.277344 11.261719 28.382812 11.15625 28.484375 11.050781 C 28.660156 10.875 28.835938 10.699219 29.011719 10.523438 C 29.214844 10.320312 29.417969 10.117188 29.621094 9.917969 C 29.792969 9.742188 29.96875 9.566406 30.144531 9.394531 C 30.246094 9.289062 30.351562 9.183594 30.453125 9.082031 C 30.550781 8.984375 30.648438 8.886719 30.746094 8.789062 C 30.800781 8.734375 30.851562 8.683594 30.90625 8.628906 C 31.082031 8.457031 31.246094 8.277344 31.40625 8.085938 C 31.359375 8.085938 31.316406 8.085938 31.269531 8.085938 C 30.839844 8.085938 30.410156 8.082031 29.980469 8.078125 C 29.761719 8.078125 29.542969 8.074219 29.320312 8.074219 C 29.109375 8.074219 28.894531 8.074219 28.683594 8.070312 C 28.601562 8.070312 28.519531 8.070312 28.4375 8.070312 C 28.324219 8.070312 28.210938 8.070312 28.097656 8.066406 C 28.046875 8.070312 28.046875 8.070312 27.996094 8.070312 C 27.785156 8.066406 27.667969 8.03125 27.5 7.890625 C 27.386719 7.726562 27.386719 7.535156 27.421875 7.34375 C 27.5625 7.097656 27.707031 7.027344 27.984375 7.027344 Z M 27.984375 7.027344 "
    />
    <path
      style="stroke: none; fill-rule: nonzero; fill: rgb(100%, 100%, 100%); fill-opacity: 1"
      d="M 21.757812 23.710938 C 23.472656 23.710938 25.1875 23.710938 26.953125 23.710938 C 26.953125 26.277344 26.953125 28.839844 26.953125 31.484375 C 25.238281 31.484375 23.523438 31.484375 21.757812 31.484375 C 21.757812 28.917969 21.757812 26.355469 21.757812 23.710938 Z M 21.757812 23.710938 "
    />
    <path
      style="stroke: none; fill-rule: nonzero; fill: rgb(100%, 100%, 100%); fill-opacity: 1"
      d="M 9.101562 27.226562 C 9.214844 27.296875 9.316406 27.371094 9.414062 27.460938 C 9.4375 27.480469 9.460938 27.5 9.488281 27.523438 C 9.777344 27.789062 9.941406 28.152344 9.96875 28.539062 C 9.980469 29.039062 9.851562 29.449219 9.503906 29.816406 C 9.320312 29.988281 9.140625 30.105469 8.90625 30.195312 C 8.863281 30.210938 8.824219 30.230469 8.78125 30.246094 C 8.28125 30.335938 7.835938 30.269531 7.410156 29.992188 C 7.066406 29.734375 6.824219 29.371094 6.757812 28.945312 C 6.714844 28.410156 6.796875 28 7.152344 27.578125 C 7.664062 27.039062 8.429688 26.90625 9.101562 27.226562 Z M 9.101562 27.226562 "
    />
    <path
      style="stroke: none; fill-rule: nonzero; fill: rgb(100%, 100%, 100%); fill-opacity: 1"
      d="M 18.515625 11.992188 C 18.539062 12.003906 18.566406 12.019531 18.589844 12.03125 C 18.839844 12.183594 18.960938 12.4375 19.078125 12.699219 C 19.15625 13.070312 19.078125 13.414062 18.882812 13.742188 C 18.703125 13.992188 18.457031 14.136719 18.164062 14.21875 C 17.753906 14.261719 17.421875 14.199219 17.097656 13.9375 C 16.828125 13.683594 16.714844 13.390625 16.703125 13.027344 C 16.703125 12.691406 16.808594 12.4375 17.023438 12.179688 C 17.433594 11.789062 18.023438 11.699219 18.515625 11.992188 Z M 18.515625 11.992188 "
    />
    <path
      style="stroke: none; fill-rule: nonzero; fill: rgb(98.431373%, 98.431373%, 98.431373%); fill-opacity: 1"
      d="M 8.59375 28.125 C 8.742188 28.210938 8.839844 28.316406 8.90625 28.476562 C 8.933594 28.660156 8.921875 28.792969 8.835938 28.960938 C 8.691406 29.132812 8.578125 29.210938 8.351562 29.230469 C 8.144531 29.214844 8.003906 29.148438 7.867188 28.992188 C 7.773438 28.84375 7.765625 28.6875 7.773438 28.515625 C 7.820312 28.339844 7.917969 28.234375 8.074219 28.144531 C 8.253906 28.066406 8.410156 28.066406 8.59375 28.125 Z M 8.59375 28.125 "
    />
  </g>
</svg>
